<?xml version="1.0" encoding="utf-8"?>
<!-- Generator: Adobe Illustrator 19.0.0, SVG Export Plug-In . SVG Version: 6.00 Build 0)  -->
<svg version="1.1"
	 id="svg2" xmlns:rdf="http://www.w3.org/1999/02/22-rdf-syntax-ns#" xmlns:dc="http://purl.org/dc/elements/1.1/" xmlns:svg="http://www.w3.org/2000/svg" xmlns:cc="http://creativecommons.org/ns#"
	 xmlns="http://www.w3.org/2000/svg" xmlns:xlink="http://www.w3.org/1999/xlink" x="0px" y="0px" viewBox="-83 220.1 1056 353.9"
	 style="enable-background:new -83 220.1 1056 353.9;" xml:space="preserve">
<style type="text/css">
	.st0{clip-path:url(#SVGID_2_);}
	.st1{fill:#F59F06;}
</style>
<g id="g10" transform="matrix(1.3333333,0,0,-1.3333333,0,353.88133)">
	<g id="g12">
		<g>
			<defs>
				<rect id="SVGID_1_" x="-194.2" y="-209.3" width="1056" height="353.9"/>
			</defs>
			<clipPath id="SVGID_2_">
				<use xlink:href="#SVGID_1_"  style="overflow:visible;"/>
			</clipPath>
			<g id="g14" class="st0">
				<g id="g20" transform="translate(72.9564,150.672)">
					<path id="path22" class="st1" d="M-62.2-165.1c-15.1,0-21.6-12.6-21.6-28.1v-51.9h-25.5v130.2h12.8c8.4,0,12.6-4.4,12.6-12.8
						V-158c13,14.9,28.9,19.1,47.9,12.4c14.2-5.2,20.9-18.8,20.1-40.8v-58.8h-25.3v51.9C-41.2-176.2-47.7-165.1-62.2-165.1"/>
				</g>
				<g id="g24" transform="translate(158.1792,132.2902)">
					<path id="path26" class="st1" d="M-62.2-165.1h38.1c-1.5,13.4-7.9,20.3-18.8,20.3C-53.8-144.8-60.3-151.7-62.2-165.1
						 M-42.9-229c-30.6,1-46,18.8-46,53.2c0,34.5,15.5,51.7,46.3,51.9c32.2,0,47.3-19.7,45.4-59.4h-65.5c1-15.5,7.7-23.4,20.1-23.4
						c5.9,0,11.5,2.5,16.5,7.3c2.3,2.5,5.2,3.6,8.6,3.6H1.3C-4.2-217.2-18-229-42.9-229"/>
				</g>
				<g id="g28" transform="translate(293.5674,112.1863)">
					<path id="path30" class="st1" d="M-62.2-165.1v9.4c-5.9-2.5-12.8-4.6-20.3-6.1c-10.1-1.9-15.3-6.7-15.3-14.2
						c0.6-8,4.8-11.9,12.8-11.9C-70.9-187.9-62.2-179.5-62.2-165.1 M-94.4-131.8h-25.5c3.1,18.8,16.3,28,39.6,28
						c28,0,42.1-9.2,42.7-28v-34.5c0-28-16.9-40.4-44.2-42.3c-24.3-1.9-41.2,9.4-41.2,31.8c0.6,24.3,18.2,30.8,43.9,33.3
						c10.9,1.3,16.5,4.6,16.5,10.1c-0.6,5.7-5.9,8.6-16.5,8.6C-88.1-124.7-93.1-127-94.4-131.8"/>
				</g>
				<g id="g32" transform="translate(355.6208,121.5675)">
					<path id="path34" class="st1" d="M-62.2-165.1c-0.2-20.5,6.7-30.8,21.3-30.8c14.6,0,21.8,10.3,21.8,30.8
						c-0.6,19.5-7.7,29.1-21.4,29.1C-54.4-136-61.5-145.6-62.2-165.1 M6.1-98.6v-73.5c0-30.4-15.9-45.6-47.5-45.4
						c-31.4,0.6-47.1,17.6-47.1,51.3c0,34.5,13.4,52.1,40.4,53c12.6,0,22.4-5.2,28.9-15.7v43.1h12.6C0.4-85.8,6.1-91.8,6.1-98.6"/>
				</g>
				<g id="g36" transform="translate(479.7097,89.0168)">
					<path id="path38" class="st1" d="M-62.2-165.1c10.7,0,16.1,3.1,16.1,9.6c0,5.2-8.8,9.4-26.2,12.4c-22.4,4-33.9,14-34.1,29.9
						c0,21.8,17.2,32.2,40.4,32.6c13,0,23.4-2.9,31-8.6c7.5-5.9,11.5-14.2,12.1-24.7h-16.1c-5.9,0.2-9.8,2.3-11.3,6.3
						c-1.7,4.4-6.9,6.9-15.3,6.9c-10,0-14.9-2.7-14.9-7.9s6.5-9.2,19.7-11.7c17.2-3.4,28.5-7.8,34.1-13c4.8-5,7.1-11.1,7.1-18
						c0-24.9-19.5-34.1-46.3-34.1c-14.2,0-24.9,3.1-31.8,9c-7.7,5.7-11.5,14.6-11.5,26.2h26C-82.7-161.3-74.7-165.1-62.2-165.1"/>
				</g>
				<g id="g40" transform="translate(580.4409,91.5058)">
					<path id="path42" class="st1" d="M-62.2-165.1c13.8,0,20.9,9.8,21.4,29.3c0,20.5-7.3,30.6-21.8,30.6
						c-14.6,0-21.4-10.1-21.3-30.6C-83.1-155.3-76-165.1-62.2-165.1 M-83.9-213c0-8.4-4.2-12.6-12.6-12.6h-12.8v96.9
						c1.3,30.3,17,45.2,47.5,45.2c31.4,0,47.1-17,47.1-51.1c0-34.5-13.4-52.3-40.4-53.2c-12.6,0-22.2,5.2-28.7,15.7V-213z"/>
				</g>
				<g id="g44" transform="translate(653.0266,171.9272)">
					<path id="path46" class="st1" d="M-62.2-165.1c8.2,0,12.3-4,12.3-12.3v-89h-25.5v101.3H-62.2z M-62.2-136.2
						c8.4,0,12.4-4.2,12.3-12.4v-7.5h-25.5v19.9H-62.2z"/>
				</g>
				<g id="g48" transform="translate(752.9811,70.635)">
					<path id="path50" class="st1" d="M-62.2-165.1c-8.4,0.6-12.6,4.6-12.6,12.6v52.1c-0.6,10.5-6.3,15.7-17.6,15.7
						s-17-5.2-17.2-15.7v-64.7h-25.9v59.5c0,28.9,14.6,43.3,43.5,43.3c28.9,0,43.1-14.4,42.9-43.3v-59.5H-62.2z"/>
				</g>
			</g>
		</g>
	</g>
</g>
</svg>
